<svg xmlns="http://www.w3.org/2000/svg" viewBox="0 0 32 32"><path fill="#76B843" fill-rule="evenodd" d="M25.52 22.82s-2.7 0-2.7 2.7v3.78s0 2.7 2.7 2.7h3.78s2.7 0 2.7-2.7v-3.77s0-2.7-2.7-2.7h-3.78zm0-11.41s-2.7 0-2.7 2.7v3.78s0 2.7 2.7 2.7h3.78s2.7 0 2.7-2.7v-3.78s0-2.7-2.7-2.7h-3.77zm0-11.4s-2.7 0-2.7 2.69v3.78s0 2.7 2.7 2.7h3.78s2.7 0 2.7-2.7V2.7S32 0 29.3 0h-3.77zm-11.4 22.81s-2.7 0-2.7 2.7v3.78s0 2.7 2.7 2.7h3.77s2.7 0 2.7-2.7v-3.78s0-2.7-2.7-2.7H14.1zm0-11.4s-2.7 0-2.7 2.7v3.77s0 2.7 2.7 2.7h3.77s2.7 0 2.7-2.7v-3.78s0-2.7-2.7-2.7H14.1zm0-11.42s-2.7 0-2.7 2.7v3.78s0 2.7 2.7 2.7h3.77s2.7 0 2.7-2.7V2.7s0-2.7-2.7-2.7H14.1zM2.7 22.82s-2.7 0-2.7 2.7v3.78S0 32 2.7 32h3.77s2.7 0 2.7-2.7v-3.78s0-2.7-2.7-2.7H2.7zm0-11.4s-2.7 0-2.7 2.7v3.77s0 2.7 2.7 2.7h3.78s2.7 0 2.7-2.7v-3.78s0-2.7-2.7-2.7H2.7zM2.7 0S0 0 0 2.7v3.78s0 2.7 2.7 2.7h3.78s2.7 0 2.7-2.7V2.7s0-2.7-2.7-2.7H2.7z"/></svg>